<mxfile host="app.diagrams.net" modified="2023-05-25T16:09:50.583Z" agent="Mozilla/5.0 (Windows NT 10.0; Win64; x64) AppleWebKit/537.36 (KHTML, like Gecko) Chrome/113.0.0.0 Safari/537.36" etag="PJuYD-B0oFuJc9mviJBw" version="21.3.4" type="device">
  <diagram id="C5RBs43oDa-KdzZeNtuy" name="Page-1">
    <mxGraphModel dx="2261" dy="756" grid="1" gridSize="10" guides="1" tooltips="1" connect="1" arrows="1" fold="1" page="1" pageScale="1" pageWidth="827" pageHeight="1169" math="0" shadow="0">
      <root>
        <mxCell id="WIyWlLk6GJQsqaUBKTNV-0" />
        <mxCell id="WIyWlLk6GJQsqaUBKTNV-1" parent="WIyWlLk6GJQsqaUBKTNV-0" />
        <mxCell id="WIyWlLk6GJQsqaUBKTNV-2" value="" style="rounded=0;html=1;jettySize=auto;orthogonalLoop=1;fontSize=11;endArrow=block;endFill=0;endSize=8;strokeWidth=1;shadow=0;labelBackgroundColor=none;edgeStyle=orthogonalEdgeStyle;" parent="WIyWlLk6GJQsqaUBKTNV-1" source="WIyWlLk6GJQsqaUBKTNV-3" target="WIyWlLk6GJQsqaUBKTNV-6" edge="1">
          <mxGeometry relative="1" as="geometry" />
        </mxCell>
        <mxCell id="WIyWlLk6GJQsqaUBKTNV-3" value="Start" style="rounded=1;whiteSpace=wrap;html=1;fontSize=12;glass=0;strokeWidth=1;shadow=0;" parent="WIyWlLk6GJQsqaUBKTNV-1" vertex="1">
          <mxGeometry x="430" y="50" width="120" height="40" as="geometry" />
        </mxCell>
        <mxCell id="laFWRxn230wDtc03_Y9F-95" value="" style="edgeStyle=orthogonalEdgeStyle;rounded=0;orthogonalLoop=1;jettySize=auto;html=1;" edge="1" parent="WIyWlLk6GJQsqaUBKTNV-1" source="WIyWlLk6GJQsqaUBKTNV-6" target="laFWRxn230wDtc03_Y9F-4">
          <mxGeometry relative="1" as="geometry" />
        </mxCell>
        <mxCell id="laFWRxn230wDtc03_Y9F-98" style="edgeStyle=orthogonalEdgeStyle;rounded=0;orthogonalLoop=1;jettySize=auto;html=1;exitX=0.5;exitY=1;exitDx=0;exitDy=0;" edge="1" parent="WIyWlLk6GJQsqaUBKTNV-1" source="WIyWlLk6GJQsqaUBKTNV-6" target="laFWRxn230wDtc03_Y9F-3">
          <mxGeometry relative="1" as="geometry" />
        </mxCell>
        <mxCell id="laFWRxn230wDtc03_Y9F-99" style="edgeStyle=orthogonalEdgeStyle;rounded=0;orthogonalLoop=1;jettySize=auto;html=1;exitX=0.5;exitY=1;exitDx=0;exitDy=0;" edge="1" parent="WIyWlLk6GJQsqaUBKTNV-1" source="WIyWlLk6GJQsqaUBKTNV-6" target="laFWRxn230wDtc03_Y9F-2">
          <mxGeometry relative="1" as="geometry" />
        </mxCell>
        <mxCell id="laFWRxn230wDtc03_Y9F-100" style="edgeStyle=orthogonalEdgeStyle;rounded=0;orthogonalLoop=1;jettySize=auto;html=1;exitX=0.5;exitY=1;exitDx=0;exitDy=0;" edge="1" parent="WIyWlLk6GJQsqaUBKTNV-1" source="WIyWlLk6GJQsqaUBKTNV-6" target="laFWRxn230wDtc03_Y9F-1">
          <mxGeometry relative="1" as="geometry" />
        </mxCell>
        <mxCell id="laFWRxn230wDtc03_Y9F-101" style="edgeStyle=orthogonalEdgeStyle;rounded=0;orthogonalLoop=1;jettySize=auto;html=1;exitX=0.5;exitY=1;exitDx=0;exitDy=0;" edge="1" parent="WIyWlLk6GJQsqaUBKTNV-1" source="WIyWlLk6GJQsqaUBKTNV-6" target="laFWRxn230wDtc03_Y9F-0">
          <mxGeometry relative="1" as="geometry" />
        </mxCell>
        <mxCell id="laFWRxn230wDtc03_Y9F-102" style="edgeStyle=orthogonalEdgeStyle;rounded=0;orthogonalLoop=1;jettySize=auto;html=1;exitX=0.5;exitY=1;exitDx=0;exitDy=0;" edge="1" parent="WIyWlLk6GJQsqaUBKTNV-1" source="WIyWlLk6GJQsqaUBKTNV-6" target="laFWRxn230wDtc03_Y9F-5">
          <mxGeometry relative="1" as="geometry" />
        </mxCell>
        <mxCell id="laFWRxn230wDtc03_Y9F-103" style="edgeStyle=orthogonalEdgeStyle;rounded=0;orthogonalLoop=1;jettySize=auto;html=1;exitX=0.5;exitY=1;exitDx=0;exitDy=0;" edge="1" parent="WIyWlLk6GJQsqaUBKTNV-1" source="WIyWlLk6GJQsqaUBKTNV-6" target="laFWRxn230wDtc03_Y9F-6">
          <mxGeometry relative="1" as="geometry" />
        </mxCell>
        <mxCell id="laFWRxn230wDtc03_Y9F-104" style="edgeStyle=orthogonalEdgeStyle;rounded=0;orthogonalLoop=1;jettySize=auto;html=1;exitX=0.5;exitY=1;exitDx=0;exitDy=0;" edge="1" parent="WIyWlLk6GJQsqaUBKTNV-1" source="WIyWlLk6GJQsqaUBKTNV-6" target="laFWRxn230wDtc03_Y9F-7">
          <mxGeometry relative="1" as="geometry" />
        </mxCell>
        <mxCell id="WIyWlLk6GJQsqaUBKTNV-6" value="Choose one option &lt;br&gt;from main menu" style="rhombus;whiteSpace=wrap;html=1;shadow=0;fontFamily=Helvetica;fontSize=12;align=center;strokeWidth=1;spacing=6;spacingTop=-4;" parent="WIyWlLk6GJQsqaUBKTNV-1" vertex="1">
          <mxGeometry x="400" y="140" width="180" height="110" as="geometry" />
        </mxCell>
        <mxCell id="laFWRxn230wDtc03_Y9F-41" style="edgeStyle=orthogonalEdgeStyle;rounded=0;orthogonalLoop=1;jettySize=auto;html=1;exitX=0.5;exitY=1;exitDx=0;exitDy=0;entryX=0.5;entryY=0;entryDx=0;entryDy=0;" edge="1" parent="WIyWlLk6GJQsqaUBKTNV-1" source="laFWRxn230wDtc03_Y9F-0" target="laFWRxn230wDtc03_Y9F-28">
          <mxGeometry relative="1" as="geometry" />
        </mxCell>
        <mxCell id="laFWRxn230wDtc03_Y9F-0" value="Add event (Only signed in user can add event)" style="whiteSpace=wrap;html=1;aspect=fixed;" vertex="1" parent="WIyWlLk6GJQsqaUBKTNV-1">
          <mxGeometry x="40" y="330" width="80" height="80" as="geometry" />
        </mxCell>
        <mxCell id="laFWRxn230wDtc03_Y9F-67" style="edgeStyle=orthogonalEdgeStyle;rounded=0;orthogonalLoop=1;jettySize=auto;html=1;exitX=0.5;exitY=1;exitDx=0;exitDy=0;entryX=0.5;entryY=0;entryDx=0;entryDy=0;" edge="1" parent="WIyWlLk6GJQsqaUBKTNV-1" source="laFWRxn230wDtc03_Y9F-1" target="laFWRxn230wDtc03_Y9F-65">
          <mxGeometry relative="1" as="geometry" />
        </mxCell>
        <mxCell id="laFWRxn230wDtc03_Y9F-1" value="Search by date" style="whiteSpace=wrap;html=1;aspect=fixed;" vertex="1" parent="WIyWlLk6GJQsqaUBKTNV-1">
          <mxGeometry x="160" y="330" width="80" height="80" as="geometry" />
        </mxCell>
        <mxCell id="laFWRxn230wDtc03_Y9F-114" style="edgeStyle=orthogonalEdgeStyle;rounded=0;orthogonalLoop=1;jettySize=auto;html=1;exitX=0.5;exitY=1;exitDx=0;exitDy=0;entryX=0.5;entryY=0;entryDx=0;entryDy=0;" edge="1" parent="WIyWlLk6GJQsqaUBKTNV-1" source="laFWRxn230wDtc03_Y9F-2" target="laFWRxn230wDtc03_Y9F-69">
          <mxGeometry relative="1" as="geometry" />
        </mxCell>
        <mxCell id="laFWRxn230wDtc03_Y9F-2" value="Search by location" style="whiteSpace=wrap;html=1;aspect=fixed;" vertex="1" parent="WIyWlLk6GJQsqaUBKTNV-1">
          <mxGeometry x="270" y="330" width="80" height="80" as="geometry" />
        </mxCell>
        <mxCell id="laFWRxn230wDtc03_Y9F-118" style="edgeStyle=orthogonalEdgeStyle;rounded=0;orthogonalLoop=1;jettySize=auto;html=1;exitX=0.5;exitY=1;exitDx=0;exitDy=0;entryX=0.5;entryY=0;entryDx=0;entryDy=0;" edge="1" parent="WIyWlLk6GJQsqaUBKTNV-1" source="laFWRxn230wDtc03_Y9F-3" target="laFWRxn230wDtc03_Y9F-73">
          <mxGeometry relative="1" as="geometry" />
        </mxCell>
        <mxCell id="laFWRxn230wDtc03_Y9F-3" value="Search by genre&amp;nbsp;" style="whiteSpace=wrap;html=1;aspect=fixed;" vertex="1" parent="WIyWlLk6GJQsqaUBKTNV-1">
          <mxGeometry x="394" y="330" width="80" height="80" as="geometry" />
        </mxCell>
        <mxCell id="laFWRxn230wDtc03_Y9F-122" value="" style="edgeStyle=orthogonalEdgeStyle;rounded=0;orthogonalLoop=1;jettySize=auto;html=1;" edge="1" parent="WIyWlLk6GJQsqaUBKTNV-1" source="laFWRxn230wDtc03_Y9F-4" target="laFWRxn230wDtc03_Y9F-76">
          <mxGeometry relative="1" as="geometry" />
        </mxCell>
        <mxCell id="laFWRxn230wDtc03_Y9F-4" value="Search by price range&amp;nbsp;" style="whiteSpace=wrap;html=1;aspect=fixed;" vertex="1" parent="WIyWlLk6GJQsqaUBKTNV-1">
          <mxGeometry x="520" y="330" width="80" height="80" as="geometry" />
        </mxCell>
        <mxCell id="laFWRxn230wDtc03_Y9F-127" value="" style="edgeStyle=orthogonalEdgeStyle;rounded=0;orthogonalLoop=1;jettySize=auto;html=1;" edge="1" parent="WIyWlLk6GJQsqaUBKTNV-1" source="laFWRxn230wDtc03_Y9F-5" target="laFWRxn230wDtc03_Y9F-80">
          <mxGeometry relative="1" as="geometry" />
        </mxCell>
        <mxCell id="laFWRxn230wDtc03_Y9F-5" value="Search by type" style="whiteSpace=wrap;html=1;aspect=fixed;" vertex="1" parent="WIyWlLk6GJQsqaUBKTNV-1">
          <mxGeometry x="640" y="330" width="80" height="80" as="geometry" />
        </mxCell>
        <mxCell id="laFWRxn230wDtc03_Y9F-131" value="" style="edgeStyle=orthogonalEdgeStyle;rounded=0;orthogonalLoop=1;jettySize=auto;html=1;" edge="1" parent="WIyWlLk6GJQsqaUBKTNV-1" source="laFWRxn230wDtc03_Y9F-6" target="laFWRxn230wDtc03_Y9F-82">
          <mxGeometry relative="1" as="geometry" />
        </mxCell>
        <mxCell id="laFWRxn230wDtc03_Y9F-6" value="Get all events" style="whiteSpace=wrap;html=1;aspect=fixed;" vertex="1" parent="WIyWlLk6GJQsqaUBKTNV-1">
          <mxGeometry x="747" y="330" width="80" height="80" as="geometry" />
        </mxCell>
        <mxCell id="laFWRxn230wDtc03_Y9F-134" value="" style="edgeStyle=orthogonalEdgeStyle;rounded=0;orthogonalLoop=1;jettySize=auto;html=1;" edge="1" parent="WIyWlLk6GJQsqaUBKTNV-1" source="laFWRxn230wDtc03_Y9F-7" target="laFWRxn230wDtc03_Y9F-84">
          <mxGeometry relative="1" as="geometry" />
        </mxCell>
        <mxCell id="laFWRxn230wDtc03_Y9F-7" value="Delete one event" style="whiteSpace=wrap;html=1;aspect=fixed;" vertex="1" parent="WIyWlLk6GJQsqaUBKTNV-1">
          <mxGeometry x="870" y="330" width="80" height="80" as="geometry" />
        </mxCell>
        <mxCell id="laFWRxn230wDtc03_Y9F-20" value="a" style="text;html=1;align=center;verticalAlign=middle;resizable=0;points=[];autosize=1;strokeColor=none;fillColor=none;" vertex="1" parent="WIyWlLk6GJQsqaUBKTNV-1">
          <mxGeometry x="55" y="298" width="30" height="30" as="geometry" />
        </mxCell>
        <mxCell id="laFWRxn230wDtc03_Y9F-21" value="s" style="text;html=1;align=center;verticalAlign=middle;resizable=0;points=[];autosize=1;strokeColor=none;fillColor=none;" vertex="1" parent="WIyWlLk6GJQsqaUBKTNV-1">
          <mxGeometry x="175" y="298" width="30" height="30" as="geometry" />
        </mxCell>
        <mxCell id="laFWRxn230wDtc03_Y9F-23" value="g" style="text;html=1;align=center;verticalAlign=middle;resizable=0;points=[];autosize=1;strokeColor=none;fillColor=none;" vertex="1" parent="WIyWlLk6GJQsqaUBKTNV-1">
          <mxGeometry x="405" y="298" width="30" height="30" as="geometry" />
        </mxCell>
        <mxCell id="laFWRxn230wDtc03_Y9F-24" value="p" style="text;html=1;align=center;verticalAlign=middle;resizable=0;points=[];autosize=1;strokeColor=none;fillColor=none;" vertex="1" parent="WIyWlLk6GJQsqaUBKTNV-1">
          <mxGeometry x="535" y="298" width="30" height="30" as="geometry" />
        </mxCell>
        <mxCell id="laFWRxn230wDtc03_Y9F-25" value="t" style="text;html=1;align=center;verticalAlign=middle;resizable=0;points=[];autosize=1;strokeColor=none;fillColor=none;" vertex="1" parent="WIyWlLk6GJQsqaUBKTNV-1">
          <mxGeometry x="655" y="298" width="30" height="30" as="geometry" />
        </mxCell>
        <mxCell id="laFWRxn230wDtc03_Y9F-26" value="r" style="text;html=1;align=center;verticalAlign=middle;resizable=0;points=[];autosize=1;strokeColor=none;fillColor=none;" vertex="1" parent="WIyWlLk6GJQsqaUBKTNV-1">
          <mxGeometry x="765" y="298" width="30" height="30" as="geometry" />
        </mxCell>
        <mxCell id="laFWRxn230wDtc03_Y9F-27" value="d" style="text;html=1;align=center;verticalAlign=middle;resizable=0;points=[];autosize=1;strokeColor=none;fillColor=none;" vertex="1" parent="WIyWlLk6GJQsqaUBKTNV-1">
          <mxGeometry x="875" y="298" width="30" height="30" as="geometry" />
        </mxCell>
        <mxCell id="laFWRxn230wDtc03_Y9F-42" style="edgeStyle=orthogonalEdgeStyle;rounded=0;orthogonalLoop=1;jettySize=auto;html=1;exitX=0.5;exitY=1;exitDx=0;exitDy=0;entryX=0.5;entryY=0;entryDx=0;entryDy=0;" edge="1" parent="WIyWlLk6GJQsqaUBKTNV-1" source="laFWRxn230wDtc03_Y9F-28" target="laFWRxn230wDtc03_Y9F-29">
          <mxGeometry relative="1" as="geometry" />
        </mxCell>
        <mxCell id="laFWRxn230wDtc03_Y9F-28" value="Enter username" style="whiteSpace=wrap;html=1;aspect=fixed;" vertex="1" parent="WIyWlLk6GJQsqaUBKTNV-1">
          <mxGeometry x="40" y="460" width="80" height="80" as="geometry" />
        </mxCell>
        <mxCell id="laFWRxn230wDtc03_Y9F-43" style="edgeStyle=orthogonalEdgeStyle;rounded=0;orthogonalLoop=1;jettySize=auto;html=1;exitX=0.5;exitY=1;exitDx=0;exitDy=0;entryX=0.5;entryY=0;entryDx=0;entryDy=0;" edge="1" parent="WIyWlLk6GJQsqaUBKTNV-1" target="laFWRxn230wDtc03_Y9F-30">
          <mxGeometry relative="1" as="geometry">
            <mxPoint x="80" y="700" as="sourcePoint" />
          </mxGeometry>
        </mxCell>
        <mxCell id="laFWRxn230wDtc03_Y9F-57" style="edgeStyle=orthogonalEdgeStyle;rounded=0;orthogonalLoop=1;jettySize=auto;html=1;exitX=0;exitY=0.5;exitDx=0;exitDy=0;entryX=1;entryY=0.5;entryDx=0;entryDy=0;" edge="1" parent="WIyWlLk6GJQsqaUBKTNV-1" source="laFWRxn230wDtc03_Y9F-29" target="laFWRxn230wDtc03_Y9F-51">
          <mxGeometry relative="1" as="geometry" />
        </mxCell>
        <mxCell id="laFWRxn230wDtc03_Y9F-147" value="" style="edgeStyle=orthogonalEdgeStyle;rounded=0;orthogonalLoop=1;jettySize=auto;html=1;" edge="1" parent="WIyWlLk6GJQsqaUBKTNV-1" source="laFWRxn230wDtc03_Y9F-29" target="laFWRxn230wDtc03_Y9F-30">
          <mxGeometry relative="1" as="geometry" />
        </mxCell>
        <mxCell id="laFWRxn230wDtc03_Y9F-29" value="Enter password" style="whiteSpace=wrap;html=1;aspect=fixed;" vertex="1" parent="WIyWlLk6GJQsqaUBKTNV-1">
          <mxGeometry x="40" y="585" width="80" height="80" as="geometry" />
        </mxCell>
        <mxCell id="laFWRxn230wDtc03_Y9F-44" style="edgeStyle=orthogonalEdgeStyle;rounded=0;orthogonalLoop=1;jettySize=auto;html=1;exitX=0.5;exitY=1;exitDx=0;exitDy=0;" edge="1" parent="WIyWlLk6GJQsqaUBKTNV-1" source="laFWRxn230wDtc03_Y9F-30" target="laFWRxn230wDtc03_Y9F-31">
          <mxGeometry relative="1" as="geometry" />
        </mxCell>
        <mxCell id="laFWRxn230wDtc03_Y9F-30" value="Correct username and password" style="whiteSpace=wrap;html=1;aspect=fixed;" vertex="1" parent="WIyWlLk6GJQsqaUBKTNV-1">
          <mxGeometry x="40" y="710" width="80" height="80" as="geometry" />
        </mxCell>
        <mxCell id="laFWRxn230wDtc03_Y9F-45" style="edgeStyle=orthogonalEdgeStyle;rounded=0;orthogonalLoop=1;jettySize=auto;html=1;exitX=0.5;exitY=1;exitDx=0;exitDy=0;entryX=0.5;entryY=0;entryDx=0;entryDy=0;" edge="1" parent="WIyWlLk6GJQsqaUBKTNV-1" source="laFWRxn230wDtc03_Y9F-31" target="laFWRxn230wDtc03_Y9F-33">
          <mxGeometry relative="1" as="geometry" />
        </mxCell>
        <mxCell id="laFWRxn230wDtc03_Y9F-31" value="Add name for the event you want to add" style="whiteSpace=wrap;html=1;aspect=fixed;" vertex="1" parent="WIyWlLk6GJQsqaUBKTNV-1">
          <mxGeometry x="40" y="830" width="80" height="80" as="geometry" />
        </mxCell>
        <mxCell id="laFWRxn230wDtc03_Y9F-46" style="edgeStyle=orthogonalEdgeStyle;rounded=0;orthogonalLoop=1;jettySize=auto;html=1;exitX=0.5;exitY=1;exitDx=0;exitDy=0;entryX=0.5;entryY=0;entryDx=0;entryDy=0;" edge="1" parent="WIyWlLk6GJQsqaUBKTNV-1" source="laFWRxn230wDtc03_Y9F-33" target="laFWRxn230wDtc03_Y9F-34">
          <mxGeometry relative="1" as="geometry" />
        </mxCell>
        <mxCell id="laFWRxn230wDtc03_Y9F-33" value="Add date for your event (yyyy-mm-dd format)" style="whiteSpace=wrap;html=1;aspect=fixed;" vertex="1" parent="WIyWlLk6GJQsqaUBKTNV-1">
          <mxGeometry x="40" y="950" width="80" height="80" as="geometry" />
        </mxCell>
        <mxCell id="laFWRxn230wDtc03_Y9F-47" style="edgeStyle=orthogonalEdgeStyle;rounded=0;orthogonalLoop=1;jettySize=auto;html=1;exitX=0.5;exitY=1;exitDx=0;exitDy=0;entryX=0.5;entryY=0;entryDx=0;entryDy=0;" edge="1" parent="WIyWlLk6GJQsqaUBKTNV-1" source="laFWRxn230wDtc03_Y9F-34" target="laFWRxn230wDtc03_Y9F-35">
          <mxGeometry relative="1" as="geometry" />
        </mxCell>
        <mxCell id="laFWRxn230wDtc03_Y9F-34" value="Add location for your event" style="whiteSpace=wrap;html=1;aspect=fixed;" vertex="1" parent="WIyWlLk6GJQsqaUBKTNV-1">
          <mxGeometry x="40" y="1070" width="80" height="80" as="geometry" />
        </mxCell>
        <mxCell id="laFWRxn230wDtc03_Y9F-48" style="edgeStyle=orthogonalEdgeStyle;rounded=0;orthogonalLoop=1;jettySize=auto;html=1;exitX=0.5;exitY=1;exitDx=0;exitDy=0;entryX=0.5;entryY=0;entryDx=0;entryDy=0;" edge="1" parent="WIyWlLk6GJQsqaUBKTNV-1" source="laFWRxn230wDtc03_Y9F-35" target="laFWRxn230wDtc03_Y9F-36">
          <mxGeometry relative="1" as="geometry" />
        </mxCell>
        <mxCell id="laFWRxn230wDtc03_Y9F-35" value="Add genre" style="whiteSpace=wrap;html=1;aspect=fixed;" vertex="1" parent="WIyWlLk6GJQsqaUBKTNV-1">
          <mxGeometry x="40" y="1190" width="80" height="80" as="geometry" />
        </mxCell>
        <mxCell id="laFWRxn230wDtc03_Y9F-49" style="edgeStyle=orthogonalEdgeStyle;rounded=0;orthogonalLoop=1;jettySize=auto;html=1;exitX=0.5;exitY=1;exitDx=0;exitDy=0;entryX=0.5;entryY=0;entryDx=0;entryDy=0;" edge="1" parent="WIyWlLk6GJQsqaUBKTNV-1" source="laFWRxn230wDtc03_Y9F-36" target="laFWRxn230wDtc03_Y9F-37">
          <mxGeometry relative="1" as="geometry" />
        </mxCell>
        <mxCell id="laFWRxn230wDtc03_Y9F-36" value="Add ticket price" style="whiteSpace=wrap;html=1;aspect=fixed;" vertex="1" parent="WIyWlLk6GJQsqaUBKTNV-1">
          <mxGeometry x="40" y="1310" width="80" height="80" as="geometry" />
        </mxCell>
        <mxCell id="laFWRxn230wDtc03_Y9F-40" style="edgeStyle=orthogonalEdgeStyle;rounded=0;orthogonalLoop=1;jettySize=auto;html=1;exitX=0.5;exitY=1;exitDx=0;exitDy=0;entryX=0.5;entryY=0;entryDx=0;entryDy=0;" edge="1" parent="WIyWlLk6GJQsqaUBKTNV-1" source="laFWRxn230wDtc03_Y9F-37" target="laFWRxn230wDtc03_Y9F-38">
          <mxGeometry relative="1" as="geometry" />
        </mxCell>
        <mxCell id="laFWRxn230wDtc03_Y9F-37" value="Add type" style="whiteSpace=wrap;html=1;aspect=fixed;" vertex="1" parent="WIyWlLk6GJQsqaUBKTNV-1">
          <mxGeometry x="40" y="1430" width="80" height="80" as="geometry" />
        </mxCell>
        <mxCell id="laFWRxn230wDtc03_Y9F-86" style="edgeStyle=orthogonalEdgeStyle;rounded=0;orthogonalLoop=1;jettySize=auto;html=1;exitX=0.5;exitY=1;exitDx=0;exitDy=0;entryX=0.5;entryY=0;entryDx=0;entryDy=0;" edge="1" parent="WIyWlLk6GJQsqaUBKTNV-1" source="laFWRxn230wDtc03_Y9F-38" target="laFWRxn230wDtc03_Y9F-55">
          <mxGeometry relative="1" as="geometry" />
        </mxCell>
        <mxCell id="laFWRxn230wDtc03_Y9F-38" value="New event is added to database" style="whiteSpace=wrap;html=1;aspect=fixed;" vertex="1" parent="WIyWlLk6GJQsqaUBKTNV-1">
          <mxGeometry x="40" y="1560" width="80" height="80" as="geometry" />
        </mxCell>
        <mxCell id="laFWRxn230wDtc03_Y9F-58" style="edgeStyle=orthogonalEdgeStyle;rounded=0;orthogonalLoop=1;jettySize=auto;html=1;exitX=0.5;exitY=1;exitDx=0;exitDy=0;entryX=0.5;entryY=0;entryDx=0;entryDy=0;" edge="1" parent="WIyWlLk6GJQsqaUBKTNV-1" source="laFWRxn230wDtc03_Y9F-51" target="laFWRxn230wDtc03_Y9F-52">
          <mxGeometry relative="1" as="geometry" />
        </mxCell>
        <mxCell id="laFWRxn230wDtc03_Y9F-51" value="Enter wrong username or password" style="whiteSpace=wrap;html=1;aspect=fixed;" vertex="1" parent="WIyWlLk6GJQsqaUBKTNV-1">
          <mxGeometry x="-100" y="585" width="80" height="80" as="geometry" />
        </mxCell>
        <mxCell id="laFWRxn230wDtc03_Y9F-59" style="edgeStyle=orthogonalEdgeStyle;rounded=0;orthogonalLoop=1;jettySize=auto;html=1;exitX=0.5;exitY=1;exitDx=0;exitDy=0;entryX=0.5;entryY=0;entryDx=0;entryDy=0;" edge="1" parent="WIyWlLk6GJQsqaUBKTNV-1" source="laFWRxn230wDtc03_Y9F-52" target="laFWRxn230wDtc03_Y9F-54">
          <mxGeometry relative="1" as="geometry" />
        </mxCell>
        <mxCell id="laFWRxn230wDtc03_Y9F-52" value="User not found, event addition not allowed" style="whiteSpace=wrap;html=1;aspect=fixed;" vertex="1" parent="WIyWlLk6GJQsqaUBKTNV-1">
          <mxGeometry x="-100" y="710" width="80" height="80" as="geometry" />
        </mxCell>
        <mxCell id="laFWRxn230wDtc03_Y9F-60" style="edgeStyle=orthogonalEdgeStyle;rounded=0;orthogonalLoop=1;jettySize=auto;html=1;exitX=0.5;exitY=1;exitDx=0;exitDy=0;" edge="1" parent="WIyWlLk6GJQsqaUBKTNV-1" source="laFWRxn230wDtc03_Y9F-54" target="laFWRxn230wDtc03_Y9F-56">
          <mxGeometry relative="1" as="geometry" />
        </mxCell>
        <mxCell id="laFWRxn230wDtc03_Y9F-54" value="Do you want to do something more?" style="whiteSpace=wrap;html=1;aspect=fixed;" vertex="1" parent="WIyWlLk6GJQsqaUBKTNV-1">
          <mxGeometry x="-100" y="830" width="80" height="80" as="geometry" />
        </mxCell>
        <mxCell id="laFWRxn230wDtc03_Y9F-145" style="edgeStyle=orthogonalEdgeStyle;rounded=0;orthogonalLoop=1;jettySize=auto;html=1;exitX=0.5;exitY=1;exitDx=0;exitDy=0;entryX=0.5;entryY=0;entryDx=0;entryDy=0;" edge="1" parent="WIyWlLk6GJQsqaUBKTNV-1" source="laFWRxn230wDtc03_Y9F-55" target="laFWRxn230wDtc03_Y9F-144">
          <mxGeometry relative="1" as="geometry" />
        </mxCell>
        <mxCell id="laFWRxn230wDtc03_Y9F-55" value="Do you want to do something more?" style="whiteSpace=wrap;html=1;aspect=fixed;" vertex="1" parent="WIyWlLk6GJQsqaUBKTNV-1">
          <mxGeometry x="40" y="1674" width="80" height="80" as="geometry" />
        </mxCell>
        <mxCell id="laFWRxn230wDtc03_Y9F-56" value="Yes- Back to main menu&lt;br style=&quot;border-color: var(--border-color);&quot;&gt;No-Exit code" style="whiteSpace=wrap;html=1;aspect=fixed;" vertex="1" parent="WIyWlLk6GJQsqaUBKTNV-1">
          <mxGeometry x="-100" y="950" width="80" height="80" as="geometry" />
        </mxCell>
        <mxCell id="laFWRxn230wDtc03_Y9F-62" style="edgeStyle=orthogonalEdgeStyle;rounded=0;orthogonalLoop=1;jettySize=auto;html=1;exitX=0.5;exitY=1;exitDx=0;exitDy=0;" edge="1" parent="WIyWlLk6GJQsqaUBKTNV-1">
          <mxGeometry relative="1" as="geometry">
            <mxPoint x="80" y="700" as="sourcePoint" />
            <mxPoint x="80" y="700" as="targetPoint" />
          </mxGeometry>
        </mxCell>
        <mxCell id="laFWRxn230wDtc03_Y9F-64" value="" style="edgeStyle=orthogonalEdgeStyle;rounded=0;orthogonalLoop=1;jettySize=auto;html=1;exitX=0.5;exitY=1;exitDx=0;exitDy=0;entryX=0.5;entryY=0;entryDx=0;entryDy=0;" edge="1" parent="WIyWlLk6GJQsqaUBKTNV-1" source="laFWRxn230wDtc03_Y9F-29">
          <mxGeometry relative="1" as="geometry">
            <mxPoint x="80" y="665" as="sourcePoint" />
            <mxPoint x="80" y="670" as="targetPoint" />
          </mxGeometry>
        </mxCell>
        <mxCell id="laFWRxn230wDtc03_Y9F-68" style="edgeStyle=orthogonalEdgeStyle;rounded=0;orthogonalLoop=1;jettySize=auto;html=1;exitX=0.5;exitY=1;exitDx=0;exitDy=0;entryX=0.5;entryY=0;entryDx=0;entryDy=0;" edge="1" parent="WIyWlLk6GJQsqaUBKTNV-1" source="laFWRxn230wDtc03_Y9F-65" target="laFWRxn230wDtc03_Y9F-66">
          <mxGeometry relative="1" as="geometry" />
        </mxCell>
        <mxCell id="laFWRxn230wDtc03_Y9F-65" value="Enter the date for the events you want to search" style="whiteSpace=wrap;html=1;aspect=fixed;" vertex="1" parent="WIyWlLk6GJQsqaUBKTNV-1">
          <mxGeometry x="160" y="460" width="80" height="80" as="geometry" />
        </mxCell>
        <mxCell id="laFWRxn230wDtc03_Y9F-106" style="edgeStyle=orthogonalEdgeStyle;rounded=0;orthogonalLoop=1;jettySize=auto;html=1;exitX=0.5;exitY=1;exitDx=0;exitDy=0;entryX=0.5;entryY=0;entryDx=0;entryDy=0;" edge="1" parent="WIyWlLk6GJQsqaUBKTNV-1" source="laFWRxn230wDtc03_Y9F-66" target="laFWRxn230wDtc03_Y9F-71">
          <mxGeometry relative="1" as="geometry" />
        </mxCell>
        <mxCell id="laFWRxn230wDtc03_Y9F-66" value="Get all events on that date" style="whiteSpace=wrap;html=1;aspect=fixed;" vertex="1" parent="WIyWlLk6GJQsqaUBKTNV-1">
          <mxGeometry x="160" y="585" width="80" height="80" as="geometry" />
        </mxCell>
        <mxCell id="laFWRxn230wDtc03_Y9F-115" style="edgeStyle=orthogonalEdgeStyle;rounded=0;orthogonalLoop=1;jettySize=auto;html=1;exitX=0.5;exitY=1;exitDx=0;exitDy=0;entryX=0.5;entryY=0;entryDx=0;entryDy=0;" edge="1" parent="WIyWlLk6GJQsqaUBKTNV-1" source="laFWRxn230wDtc03_Y9F-69" target="laFWRxn230wDtc03_Y9F-70">
          <mxGeometry relative="1" as="geometry" />
        </mxCell>
        <mxCell id="laFWRxn230wDtc03_Y9F-69" value="Enter the location you want to search" style="whiteSpace=wrap;html=1;aspect=fixed;" vertex="1" parent="WIyWlLk6GJQsqaUBKTNV-1">
          <mxGeometry x="270" y="460" width="80" height="80" as="geometry" />
        </mxCell>
        <mxCell id="laFWRxn230wDtc03_Y9F-116" style="edgeStyle=orthogonalEdgeStyle;rounded=0;orthogonalLoop=1;jettySize=auto;html=1;exitX=0.5;exitY=1;exitDx=0;exitDy=0;" edge="1" parent="WIyWlLk6GJQsqaUBKTNV-1" source="laFWRxn230wDtc03_Y9F-70" target="laFWRxn230wDtc03_Y9F-72">
          <mxGeometry relative="1" as="geometry" />
        </mxCell>
        <mxCell id="laFWRxn230wDtc03_Y9F-70" value="Get all events in that location" style="whiteSpace=wrap;html=1;aspect=fixed;" vertex="1" parent="WIyWlLk6GJQsqaUBKTNV-1">
          <mxGeometry x="270" y="585" width="80" height="80" as="geometry" />
        </mxCell>
        <mxCell id="laFWRxn230wDtc03_Y9F-107" style="edgeStyle=orthogonalEdgeStyle;rounded=0;orthogonalLoop=1;jettySize=auto;html=1;exitX=0.5;exitY=1;exitDx=0;exitDy=0;entryX=0.5;entryY=0;entryDx=0;entryDy=0;" edge="1" parent="WIyWlLk6GJQsqaUBKTNV-1" source="laFWRxn230wDtc03_Y9F-71" target="laFWRxn230wDtc03_Y9F-87">
          <mxGeometry relative="1" as="geometry" />
        </mxCell>
        <mxCell id="laFWRxn230wDtc03_Y9F-71" value="Do you want to do something more?" style="whiteSpace=wrap;html=1;aspect=fixed;" vertex="1" parent="WIyWlLk6GJQsqaUBKTNV-1">
          <mxGeometry x="160" y="710" width="80" height="80" as="geometry" />
        </mxCell>
        <mxCell id="laFWRxn230wDtc03_Y9F-117" style="edgeStyle=orthogonalEdgeStyle;rounded=0;orthogonalLoop=1;jettySize=auto;html=1;exitX=0.5;exitY=1;exitDx=0;exitDy=0;" edge="1" parent="WIyWlLk6GJQsqaUBKTNV-1" source="laFWRxn230wDtc03_Y9F-72" target="laFWRxn230wDtc03_Y9F-88">
          <mxGeometry relative="1" as="geometry" />
        </mxCell>
        <mxCell id="laFWRxn230wDtc03_Y9F-72" value="Do you want to do something more?" style="whiteSpace=wrap;html=1;aspect=fixed;" vertex="1" parent="WIyWlLk6GJQsqaUBKTNV-1">
          <mxGeometry x="270" y="710" width="80" height="80" as="geometry" />
        </mxCell>
        <mxCell id="laFWRxn230wDtc03_Y9F-119" value="" style="edgeStyle=orthogonalEdgeStyle;rounded=0;orthogonalLoop=1;jettySize=auto;html=1;" edge="1" parent="WIyWlLk6GJQsqaUBKTNV-1" source="laFWRxn230wDtc03_Y9F-73" target="laFWRxn230wDtc03_Y9F-74">
          <mxGeometry relative="1" as="geometry" />
        </mxCell>
        <mxCell id="laFWRxn230wDtc03_Y9F-73" value="Enter the genre you want to search" style="whiteSpace=wrap;html=1;aspect=fixed;" vertex="1" parent="WIyWlLk6GJQsqaUBKTNV-1">
          <mxGeometry x="394" y="460" width="80" height="80" as="geometry" />
        </mxCell>
        <mxCell id="laFWRxn230wDtc03_Y9F-120" value="" style="edgeStyle=orthogonalEdgeStyle;rounded=0;orthogonalLoop=1;jettySize=auto;html=1;" edge="1" parent="WIyWlLk6GJQsqaUBKTNV-1" source="laFWRxn230wDtc03_Y9F-74" target="laFWRxn230wDtc03_Y9F-75">
          <mxGeometry relative="1" as="geometry" />
        </mxCell>
        <mxCell id="laFWRxn230wDtc03_Y9F-74" value="Get all events with that genre" style="whiteSpace=wrap;html=1;aspect=fixed;" vertex="1" parent="WIyWlLk6GJQsqaUBKTNV-1">
          <mxGeometry x="394" y="585" width="80" height="80" as="geometry" />
        </mxCell>
        <mxCell id="laFWRxn230wDtc03_Y9F-121" value="" style="edgeStyle=orthogonalEdgeStyle;rounded=0;orthogonalLoop=1;jettySize=auto;html=1;" edge="1" parent="WIyWlLk6GJQsqaUBKTNV-1" source="laFWRxn230wDtc03_Y9F-75" target="laFWRxn230wDtc03_Y9F-89">
          <mxGeometry relative="1" as="geometry" />
        </mxCell>
        <mxCell id="laFWRxn230wDtc03_Y9F-75" value="Do you want to do something more?" style="whiteSpace=wrap;html=1;aspect=fixed;" vertex="1" parent="WIyWlLk6GJQsqaUBKTNV-1">
          <mxGeometry x="394" y="710" width="80" height="80" as="geometry" />
        </mxCell>
        <mxCell id="laFWRxn230wDtc03_Y9F-123" value="" style="edgeStyle=orthogonalEdgeStyle;rounded=0;orthogonalLoop=1;jettySize=auto;html=1;" edge="1" parent="WIyWlLk6GJQsqaUBKTNV-1" source="laFWRxn230wDtc03_Y9F-76" target="laFWRxn230wDtc03_Y9F-77">
          <mxGeometry relative="1" as="geometry" />
        </mxCell>
        <mxCell id="laFWRxn230wDtc03_Y9F-76" value="Enter the min price" style="whiteSpace=wrap;html=1;aspect=fixed;" vertex="1" parent="WIyWlLk6GJQsqaUBKTNV-1">
          <mxGeometry x="520" y="460" width="80" height="80" as="geometry" />
        </mxCell>
        <mxCell id="laFWRxn230wDtc03_Y9F-124" value="" style="edgeStyle=orthogonalEdgeStyle;rounded=0;orthogonalLoop=1;jettySize=auto;html=1;" edge="1" parent="WIyWlLk6GJQsqaUBKTNV-1" source="laFWRxn230wDtc03_Y9F-77" target="laFWRxn230wDtc03_Y9F-78">
          <mxGeometry relative="1" as="geometry" />
        </mxCell>
        <mxCell id="laFWRxn230wDtc03_Y9F-77" value="Enter the max price&amp;nbsp;" style="whiteSpace=wrap;html=1;aspect=fixed;" vertex="1" parent="WIyWlLk6GJQsqaUBKTNV-1">
          <mxGeometry x="520" y="585" width="80" height="80" as="geometry" />
        </mxCell>
        <mxCell id="laFWRxn230wDtc03_Y9F-125" value="" style="edgeStyle=orthogonalEdgeStyle;rounded=0;orthogonalLoop=1;jettySize=auto;html=1;" edge="1" parent="WIyWlLk6GJQsqaUBKTNV-1" source="laFWRxn230wDtc03_Y9F-78" target="laFWRxn230wDtc03_Y9F-79">
          <mxGeometry relative="1" as="geometry" />
        </mxCell>
        <mxCell id="laFWRxn230wDtc03_Y9F-78" value="Get all events in that price range&amp;nbsp;" style="whiteSpace=wrap;html=1;aspect=fixed;" vertex="1" parent="WIyWlLk6GJQsqaUBKTNV-1">
          <mxGeometry x="520" y="710" width="80" height="80" as="geometry" />
        </mxCell>
        <mxCell id="laFWRxn230wDtc03_Y9F-126" value="" style="edgeStyle=orthogonalEdgeStyle;rounded=0;orthogonalLoop=1;jettySize=auto;html=1;" edge="1" parent="WIyWlLk6GJQsqaUBKTNV-1" source="laFWRxn230wDtc03_Y9F-79" target="laFWRxn230wDtc03_Y9F-110">
          <mxGeometry relative="1" as="geometry" />
        </mxCell>
        <mxCell id="laFWRxn230wDtc03_Y9F-79" value="Do you want to do something more?" style="whiteSpace=wrap;html=1;aspect=fixed;" vertex="1" parent="WIyWlLk6GJQsqaUBKTNV-1">
          <mxGeometry x="520" y="830" width="80" height="80" as="geometry" />
        </mxCell>
        <mxCell id="laFWRxn230wDtc03_Y9F-128" value="" style="edgeStyle=orthogonalEdgeStyle;rounded=0;orthogonalLoop=1;jettySize=auto;html=1;" edge="1" parent="WIyWlLk6GJQsqaUBKTNV-1" source="laFWRxn230wDtc03_Y9F-80" target="laFWRxn230wDtc03_Y9F-81">
          <mxGeometry relative="1" as="geometry" />
        </mxCell>
        <mxCell id="laFWRxn230wDtc03_Y9F-80" value="Enter the type you want to search" style="whiteSpace=wrap;html=1;aspect=fixed;" vertex="1" parent="WIyWlLk6GJQsqaUBKTNV-1">
          <mxGeometry x="640" y="460" width="80" height="80" as="geometry" />
        </mxCell>
        <mxCell id="laFWRxn230wDtc03_Y9F-129" value="" style="edgeStyle=orthogonalEdgeStyle;rounded=0;orthogonalLoop=1;jettySize=auto;html=1;" edge="1" parent="WIyWlLk6GJQsqaUBKTNV-1" source="laFWRxn230wDtc03_Y9F-81" target="laFWRxn230wDtc03_Y9F-90">
          <mxGeometry relative="1" as="geometry" />
        </mxCell>
        <mxCell id="laFWRxn230wDtc03_Y9F-81" value="Get all events with that type" style="whiteSpace=wrap;html=1;aspect=fixed;" vertex="1" parent="WIyWlLk6GJQsqaUBKTNV-1">
          <mxGeometry x="640" y="585" width="80" height="80" as="geometry" />
        </mxCell>
        <mxCell id="laFWRxn230wDtc03_Y9F-132" value="" style="edgeStyle=orthogonalEdgeStyle;rounded=0;orthogonalLoop=1;jettySize=auto;html=1;" edge="1" parent="WIyWlLk6GJQsqaUBKTNV-1" source="laFWRxn230wDtc03_Y9F-82" target="laFWRxn230wDtc03_Y9F-91">
          <mxGeometry relative="1" as="geometry" />
        </mxCell>
        <mxCell id="laFWRxn230wDtc03_Y9F-82" value="Displays all inserted events" style="whiteSpace=wrap;html=1;aspect=fixed;" vertex="1" parent="WIyWlLk6GJQsqaUBKTNV-1">
          <mxGeometry x="747" y="460" width="80" height="80" as="geometry" />
        </mxCell>
        <mxCell id="laFWRxn230wDtc03_Y9F-135" value="" style="edgeStyle=orthogonalEdgeStyle;rounded=0;orthogonalLoop=1;jettySize=auto;html=1;" edge="1" parent="WIyWlLk6GJQsqaUBKTNV-1" source="laFWRxn230wDtc03_Y9F-84" target="laFWRxn230wDtc03_Y9F-85">
          <mxGeometry relative="1" as="geometry" />
        </mxCell>
        <mxCell id="laFWRxn230wDtc03_Y9F-84" value="Enter username" style="whiteSpace=wrap;html=1;aspect=fixed;" vertex="1" parent="WIyWlLk6GJQsqaUBKTNV-1">
          <mxGeometry x="870" y="460" width="80" height="80" as="geometry" />
        </mxCell>
        <mxCell id="laFWRxn230wDtc03_Y9F-136" value="" style="edgeStyle=orthogonalEdgeStyle;rounded=0;orthogonalLoop=1;jettySize=auto;html=1;" edge="1" parent="WIyWlLk6GJQsqaUBKTNV-1" source="laFWRxn230wDtc03_Y9F-85" target="laFWRxn230wDtc03_Y9F-92">
          <mxGeometry relative="1" as="geometry" />
        </mxCell>
        <mxCell id="laFWRxn230wDtc03_Y9F-148" style="edgeStyle=orthogonalEdgeStyle;rounded=0;orthogonalLoop=1;jettySize=auto;html=1;exitX=1;exitY=0.5;exitDx=0;exitDy=0;entryX=0;entryY=0.5;entryDx=0;entryDy=0;" edge="1" parent="WIyWlLk6GJQsqaUBKTNV-1" source="laFWRxn230wDtc03_Y9F-85" target="laFWRxn230wDtc03_Y9F-140">
          <mxGeometry relative="1" as="geometry" />
        </mxCell>
        <mxCell id="laFWRxn230wDtc03_Y9F-85" value="Enter password" style="whiteSpace=wrap;html=1;aspect=fixed;" vertex="1" parent="WIyWlLk6GJQsqaUBKTNV-1">
          <mxGeometry x="870" y="585" width="80" height="80" as="geometry" />
        </mxCell>
        <mxCell id="laFWRxn230wDtc03_Y9F-87" value="Yes- Back to main menu&lt;br style=&quot;border-color: var(--border-color);&quot;&gt;No-Exit code" style="whiteSpace=wrap;html=1;aspect=fixed;" vertex="1" parent="WIyWlLk6GJQsqaUBKTNV-1">
          <mxGeometry x="160" y="830" width="80" height="80" as="geometry" />
        </mxCell>
        <mxCell id="laFWRxn230wDtc03_Y9F-88" value="Yes- Back to main menu&lt;br style=&quot;border-color: var(--border-color);&quot;&gt;No-Exit code" style="whiteSpace=wrap;html=1;aspect=fixed;" vertex="1" parent="WIyWlLk6GJQsqaUBKTNV-1">
          <mxGeometry x="270" y="830" width="80" height="80" as="geometry" />
        </mxCell>
        <mxCell id="laFWRxn230wDtc03_Y9F-89" value="Yes- Back to main menu&lt;br style=&quot;border-color: var(--border-color);&quot;&gt;No-Exit code" style="whiteSpace=wrap;html=1;aspect=fixed;" vertex="1" parent="WIyWlLk6GJQsqaUBKTNV-1">
          <mxGeometry x="394" y="830" width="80" height="80" as="geometry" />
        </mxCell>
        <mxCell id="laFWRxn230wDtc03_Y9F-130" value="" style="edgeStyle=orthogonalEdgeStyle;rounded=0;orthogonalLoop=1;jettySize=auto;html=1;" edge="1" parent="WIyWlLk6GJQsqaUBKTNV-1" source="laFWRxn230wDtc03_Y9F-90" target="laFWRxn230wDtc03_Y9F-108">
          <mxGeometry relative="1" as="geometry" />
        </mxCell>
        <mxCell id="laFWRxn230wDtc03_Y9F-90" value="Do you want to do something more?" style="whiteSpace=wrap;html=1;aspect=fixed;" vertex="1" parent="WIyWlLk6GJQsqaUBKTNV-1">
          <mxGeometry x="640" y="710" width="80" height="80" as="geometry" />
        </mxCell>
        <mxCell id="laFWRxn230wDtc03_Y9F-133" style="edgeStyle=orthogonalEdgeStyle;rounded=0;orthogonalLoop=1;jettySize=auto;html=1;exitX=0.5;exitY=1;exitDx=0;exitDy=0;entryX=0.5;entryY=0;entryDx=0;entryDy=0;" edge="1" parent="WIyWlLk6GJQsqaUBKTNV-1" source="laFWRxn230wDtc03_Y9F-91" target="laFWRxn230wDtc03_Y9F-109">
          <mxGeometry relative="1" as="geometry" />
        </mxCell>
        <mxCell id="laFWRxn230wDtc03_Y9F-91" value="Do you want to do something more?" style="whiteSpace=wrap;html=1;aspect=fixed;" vertex="1" parent="WIyWlLk6GJQsqaUBKTNV-1">
          <mxGeometry x="747" y="585" width="80" height="80" as="geometry" />
        </mxCell>
        <mxCell id="laFWRxn230wDtc03_Y9F-137" value="" style="edgeStyle=orthogonalEdgeStyle;rounded=0;orthogonalLoop=1;jettySize=auto;html=1;" edge="1" parent="WIyWlLk6GJQsqaUBKTNV-1" source="laFWRxn230wDtc03_Y9F-92" target="laFWRxn230wDtc03_Y9F-111">
          <mxGeometry relative="1" as="geometry" />
        </mxCell>
        <mxCell id="laFWRxn230wDtc03_Y9F-92" value="Correct username and password" style="whiteSpace=wrap;html=1;aspect=fixed;" vertex="1" parent="WIyWlLk6GJQsqaUBKTNV-1">
          <mxGeometry x="870" y="710" width="80" height="80" as="geometry" />
        </mxCell>
        <mxCell id="laFWRxn230wDtc03_Y9F-105" value="l" style="text;html=1;align=center;verticalAlign=middle;resizable=0;points=[];autosize=1;strokeColor=none;fillColor=none;" vertex="1" parent="WIyWlLk6GJQsqaUBKTNV-1">
          <mxGeometry x="275" y="298" width="30" height="30" as="geometry" />
        </mxCell>
        <mxCell id="laFWRxn230wDtc03_Y9F-108" value="Yes- Back to main menu&lt;br style=&quot;border-color: var(--border-color);&quot;&gt;No-Exit code" style="whiteSpace=wrap;html=1;aspect=fixed;" vertex="1" parent="WIyWlLk6GJQsqaUBKTNV-1">
          <mxGeometry x="640" y="830" width="80" height="80" as="geometry" />
        </mxCell>
        <mxCell id="laFWRxn230wDtc03_Y9F-109" value="&#xa;&lt;span style=&quot;color: rgb(0, 0, 0); font-family: Helvetica; font-size: 12px; font-style: normal; font-variant-ligatures: normal; font-variant-caps: normal; font-weight: 400; letter-spacing: normal; orphans: 2; text-align: center; text-indent: 0px; text-transform: none; widows: 2; word-spacing: 0px; -webkit-text-stroke-width: 0px; background-color: rgb(251, 251, 251); text-decoration-thickness: initial; text-decoration-style: initial; text-decoration-color: initial; float: none; display: inline !important;&quot;&gt;Yes- Back to main menu&lt;/span&gt;&lt;br style=&quot;border-color: var(--border-color); color: rgb(0, 0, 0); font-family: Helvetica; font-size: 12px; font-style: normal; font-variant-ligatures: normal; font-variant-caps: normal; font-weight: 400; letter-spacing: normal; orphans: 2; text-align: center; text-indent: 0px; text-transform: none; widows: 2; word-spacing: 0px; -webkit-text-stroke-width: 0px; background-color: rgb(251, 251, 251); text-decoration-thickness: initial; text-decoration-style: initial; text-decoration-color: initial;&quot;&gt;&lt;span style=&quot;color: rgb(0, 0, 0); font-family: Helvetica; font-size: 12px; font-style: normal; font-variant-ligatures: normal; font-variant-caps: normal; font-weight: 400; letter-spacing: normal; orphans: 2; text-align: center; text-indent: 0px; text-transform: none; widows: 2; word-spacing: 0px; -webkit-text-stroke-width: 0px; background-color: rgb(251, 251, 251); text-decoration-thickness: initial; text-decoration-style: initial; text-decoration-color: initial; float: none; display: inline !important;&quot;&gt;No-Exit code&lt;/span&gt;&#xa;&#xa;" style="whiteSpace=wrap;html=1;aspect=fixed;" vertex="1" parent="WIyWlLk6GJQsqaUBKTNV-1">
          <mxGeometry x="747" y="710" width="80" height="80" as="geometry" />
        </mxCell>
        <mxCell id="laFWRxn230wDtc03_Y9F-110" value="Yes- Back to main menu&lt;br style=&quot;border-color: var(--border-color);&quot;&gt;No-Exit code" style="whiteSpace=wrap;html=1;aspect=fixed;" vertex="1" parent="WIyWlLk6GJQsqaUBKTNV-1">
          <mxGeometry x="520" y="950" width="80" height="80" as="geometry" />
        </mxCell>
        <mxCell id="laFWRxn230wDtc03_Y9F-138" value="" style="edgeStyle=orthogonalEdgeStyle;rounded=0;orthogonalLoop=1;jettySize=auto;html=1;" edge="1" parent="WIyWlLk6GJQsqaUBKTNV-1" source="laFWRxn230wDtc03_Y9F-111" target="laFWRxn230wDtc03_Y9F-112">
          <mxGeometry relative="1" as="geometry" />
        </mxCell>
        <mxCell id="laFWRxn230wDtc03_Y9F-111" value="Add name of the event you want to delete" style="whiteSpace=wrap;html=1;aspect=fixed;" vertex="1" parent="WIyWlLk6GJQsqaUBKTNV-1">
          <mxGeometry x="870" y="830" width="80" height="80" as="geometry" />
        </mxCell>
        <mxCell id="laFWRxn230wDtc03_Y9F-139" value="" style="edgeStyle=orthogonalEdgeStyle;rounded=0;orthogonalLoop=1;jettySize=auto;html=1;" edge="1" parent="WIyWlLk6GJQsqaUBKTNV-1" source="laFWRxn230wDtc03_Y9F-112" target="laFWRxn230wDtc03_Y9F-113">
          <mxGeometry relative="1" as="geometry" />
        </mxCell>
        <mxCell id="laFWRxn230wDtc03_Y9F-112" value="Event was deleted successfully from the database" style="whiteSpace=wrap;html=1;aspect=fixed;" vertex="1" parent="WIyWlLk6GJQsqaUBKTNV-1">
          <mxGeometry x="870" y="950" width="80" height="80" as="geometry" />
        </mxCell>
        <mxCell id="laFWRxn230wDtc03_Y9F-153" value="" style="edgeStyle=orthogonalEdgeStyle;rounded=0;orthogonalLoop=1;jettySize=auto;html=1;" edge="1" parent="WIyWlLk6GJQsqaUBKTNV-1" source="laFWRxn230wDtc03_Y9F-113" target="laFWRxn230wDtc03_Y9F-149">
          <mxGeometry relative="1" as="geometry" />
        </mxCell>
        <mxCell id="laFWRxn230wDtc03_Y9F-113" value="Do you want to do something more?" style="whiteSpace=wrap;html=1;aspect=fixed;" vertex="1" parent="WIyWlLk6GJQsqaUBKTNV-1">
          <mxGeometry x="870" y="1070" width="80" height="80" as="geometry" />
        </mxCell>
        <mxCell id="laFWRxn230wDtc03_Y9F-150" style="edgeStyle=orthogonalEdgeStyle;rounded=0;orthogonalLoop=1;jettySize=auto;html=1;exitX=0.5;exitY=1;exitDx=0;exitDy=0;entryX=0.5;entryY=0;entryDx=0;entryDy=0;" edge="1" parent="WIyWlLk6GJQsqaUBKTNV-1" source="laFWRxn230wDtc03_Y9F-140" target="laFWRxn230wDtc03_Y9F-141">
          <mxGeometry relative="1" as="geometry" />
        </mxCell>
        <mxCell id="laFWRxn230wDtc03_Y9F-140" value="Enter wrong username or password" style="whiteSpace=wrap;html=1;aspect=fixed;" vertex="1" parent="WIyWlLk6GJQsqaUBKTNV-1">
          <mxGeometry x="990" y="585" width="80" height="80" as="geometry" />
        </mxCell>
        <mxCell id="laFWRxn230wDtc03_Y9F-151" value="" style="edgeStyle=orthogonalEdgeStyle;rounded=0;orthogonalLoop=1;jettySize=auto;html=1;" edge="1" parent="WIyWlLk6GJQsqaUBKTNV-1" source="laFWRxn230wDtc03_Y9F-141" target="laFWRxn230wDtc03_Y9F-142">
          <mxGeometry relative="1" as="geometry" />
        </mxCell>
        <mxCell id="laFWRxn230wDtc03_Y9F-141" value="Deleting event not allowed" style="whiteSpace=wrap;html=1;aspect=fixed;" vertex="1" parent="WIyWlLk6GJQsqaUBKTNV-1">
          <mxGeometry x="990" y="710" width="80" height="80" as="geometry" />
        </mxCell>
        <mxCell id="laFWRxn230wDtc03_Y9F-152" value="" style="edgeStyle=orthogonalEdgeStyle;rounded=0;orthogonalLoop=1;jettySize=auto;html=1;" edge="1" parent="WIyWlLk6GJQsqaUBKTNV-1" source="laFWRxn230wDtc03_Y9F-142" target="laFWRxn230wDtc03_Y9F-143">
          <mxGeometry relative="1" as="geometry" />
        </mxCell>
        <mxCell id="laFWRxn230wDtc03_Y9F-142" value="Do you want to do something more?" style="whiteSpace=wrap;html=1;aspect=fixed;" vertex="1" parent="WIyWlLk6GJQsqaUBKTNV-1">
          <mxGeometry x="990" y="830" width="80" height="80" as="geometry" />
        </mxCell>
        <mxCell id="laFWRxn230wDtc03_Y9F-143" value="Yes- Back to main menu&lt;br style=&quot;border-color: var(--border-color);&quot;&gt;No-Exit code" style="whiteSpace=wrap;html=1;aspect=fixed;" vertex="1" parent="WIyWlLk6GJQsqaUBKTNV-1">
          <mxGeometry x="990" y="950" width="80" height="80" as="geometry" />
        </mxCell>
        <mxCell id="laFWRxn230wDtc03_Y9F-144" value="Yes- Back to main menu&lt;br style=&quot;border-color: var(--border-color);&quot;&gt;No-Exit code" style="whiteSpace=wrap;html=1;aspect=fixed;" vertex="1" parent="WIyWlLk6GJQsqaUBKTNV-1">
          <mxGeometry x="40" y="1790" width="80" height="80" as="geometry" />
        </mxCell>
        <mxCell id="laFWRxn230wDtc03_Y9F-149" value="Yes- Back to main menu&lt;br style=&quot;border-color: var(--border-color);&quot;&gt;No-Exit code" style="whiteSpace=wrap;html=1;aspect=fixed;" vertex="1" parent="WIyWlLk6GJQsqaUBKTNV-1">
          <mxGeometry x="870" y="1190" width="80" height="80" as="geometry" />
        </mxCell>
      </root>
    </mxGraphModel>
  </diagram>
</mxfile>
